G04 #@! TF.FileFunction,Legend,Bot*
%FSLAX46Y46*%
G04 Gerber Fmt 4.6, Leading zero omitted, Abs format (unit mm)*
G04 Created by KiCad (PCBNEW 4.0.1-3.201512221402+6198~38~ubuntu14.04.1-stable) date Sun 07 Feb 2016 23:01:24 GMT*
%MOMM*%
G01*
G04 APERTURE LIST*
%ADD10C,0.100000*%
%ADD11C,0.125000*%
%ADD12C,0.150000*%
G04 APERTURE END LIST*
D10*
D11*
X192301714Y-136624190D02*
X192301714Y-136124190D01*
X192135048Y-136481333D01*
X191968381Y-136124190D01*
X191968381Y-136624190D01*
X191635047Y-136124190D02*
X191539809Y-136124190D01*
X191492190Y-136148000D01*
X191444571Y-136195619D01*
X191420762Y-136290857D01*
X191420762Y-136457524D01*
X191444571Y-136552762D01*
X191492190Y-136600381D01*
X191539809Y-136624190D01*
X191635047Y-136624190D01*
X191682666Y-136600381D01*
X191730285Y-136552762D01*
X191754095Y-136457524D01*
X191754095Y-136290857D01*
X191730285Y-136195619D01*
X191682666Y-136148000D01*
X191635047Y-136124190D01*
X191230285Y-136600381D02*
X191158856Y-136624190D01*
X191039809Y-136624190D01*
X190992190Y-136600381D01*
X190968380Y-136576571D01*
X190944571Y-136528952D01*
X190944571Y-136481333D01*
X190968380Y-136433714D01*
X190992190Y-136409905D01*
X191039809Y-136386095D01*
X191135047Y-136362286D01*
X191182666Y-136338476D01*
X191206475Y-136314667D01*
X191230285Y-136267048D01*
X191230285Y-136219429D01*
X191206475Y-136171810D01*
X191182666Y-136148000D01*
X191135047Y-136124190D01*
X191015999Y-136124190D01*
X190944571Y-136148000D01*
X190730285Y-136624190D02*
X190730285Y-136124190D01*
X184562666Y-136124190D02*
X184395999Y-136624190D01*
X184229333Y-136124190D01*
X183776952Y-136576571D02*
X183800762Y-136600381D01*
X183872190Y-136624190D01*
X183919809Y-136624190D01*
X183991238Y-136600381D01*
X184038857Y-136552762D01*
X184062666Y-136505143D01*
X184086476Y-136409905D01*
X184086476Y-136338476D01*
X184062666Y-136243238D01*
X184038857Y-136195619D01*
X183991238Y-136148000D01*
X183919809Y-136124190D01*
X183872190Y-136124190D01*
X183800762Y-136148000D01*
X183776952Y-136171810D01*
X183276952Y-136576571D02*
X183300762Y-136600381D01*
X183372190Y-136624190D01*
X183419809Y-136624190D01*
X183491238Y-136600381D01*
X183538857Y-136552762D01*
X183562666Y-136505143D01*
X183586476Y-136409905D01*
X183586476Y-136338476D01*
X183562666Y-136243238D01*
X183538857Y-136195619D01*
X183491238Y-136148000D01*
X183419809Y-136124190D01*
X183372190Y-136124190D01*
X183300762Y-136148000D01*
X183276952Y-136171810D01*
X192158857Y-134060381D02*
X192087428Y-134084190D01*
X191968381Y-134084190D01*
X191920762Y-134060381D01*
X191896952Y-134036571D01*
X191873143Y-133988952D01*
X191873143Y-133941333D01*
X191896952Y-133893714D01*
X191920762Y-133869905D01*
X191968381Y-133846095D01*
X192063619Y-133822286D01*
X192111238Y-133798476D01*
X192135047Y-133774667D01*
X192158857Y-133727048D01*
X192158857Y-133679429D01*
X192135047Y-133631810D01*
X192111238Y-133608000D01*
X192063619Y-133584190D01*
X191944571Y-133584190D01*
X191873143Y-133608000D01*
X191373143Y-134036571D02*
X191396953Y-134060381D01*
X191468381Y-134084190D01*
X191516000Y-134084190D01*
X191587429Y-134060381D01*
X191635048Y-134012762D01*
X191658857Y-133965143D01*
X191682667Y-133869905D01*
X191682667Y-133798476D01*
X191658857Y-133703238D01*
X191635048Y-133655619D01*
X191587429Y-133608000D01*
X191516000Y-133584190D01*
X191468381Y-133584190D01*
X191396953Y-133608000D01*
X191373143Y-133631810D01*
X191158857Y-134084190D02*
X191158857Y-133584190D01*
X190873143Y-134084190D02*
X191087429Y-133798476D01*
X190873143Y-133584190D02*
X191158857Y-133869905D01*
X184681714Y-134338190D02*
X184681714Y-133838190D01*
X184515048Y-134195333D01*
X184348381Y-133838190D01*
X184348381Y-134338190D01*
X184110285Y-134338190D02*
X184110285Y-133838190D01*
X183896000Y-134314381D02*
X183824571Y-134338190D01*
X183705524Y-134338190D01*
X183657905Y-134314381D01*
X183634095Y-134290571D01*
X183610286Y-134242952D01*
X183610286Y-134195333D01*
X183634095Y-134147714D01*
X183657905Y-134123905D01*
X183705524Y-134100095D01*
X183800762Y-134076286D01*
X183848381Y-134052476D01*
X183872190Y-134028667D01*
X183896000Y-133981048D01*
X183896000Y-133933429D01*
X183872190Y-133885810D01*
X183848381Y-133862000D01*
X183800762Y-133838190D01*
X183681714Y-133838190D01*
X183610286Y-133862000D01*
X183300762Y-133838190D02*
X183205524Y-133838190D01*
X183157905Y-133862000D01*
X183110286Y-133909619D01*
X183086477Y-134004857D01*
X183086477Y-134171524D01*
X183110286Y-134266762D01*
X183157905Y-134314381D01*
X183205524Y-134338190D01*
X183300762Y-134338190D01*
X183348381Y-134314381D01*
X183396000Y-134266762D01*
X183419810Y-134171524D01*
X183419810Y-134004857D01*
X183396000Y-133909619D01*
X183348381Y-133862000D01*
X183300762Y-133838190D01*
X191896953Y-131068000D02*
X191944572Y-131044190D01*
X192016000Y-131044190D01*
X192087429Y-131068000D01*
X192135048Y-131115619D01*
X192158857Y-131163238D01*
X192182667Y-131258476D01*
X192182667Y-131329905D01*
X192158857Y-131425143D01*
X192135048Y-131472762D01*
X192087429Y-131520381D01*
X192016000Y-131544190D01*
X191968381Y-131544190D01*
X191896953Y-131520381D01*
X191873143Y-131496571D01*
X191873143Y-131329905D01*
X191968381Y-131329905D01*
X191658857Y-131544190D02*
X191658857Y-131044190D01*
X191373143Y-131544190D01*
X191373143Y-131044190D01*
X191135047Y-131544190D02*
X191135047Y-131044190D01*
X191016000Y-131044190D01*
X190944571Y-131068000D01*
X190896952Y-131115619D01*
X190873143Y-131163238D01*
X190849333Y-131258476D01*
X190849333Y-131329905D01*
X190873143Y-131425143D01*
X190896952Y-131472762D01*
X190944571Y-131520381D01*
X191016000Y-131544190D01*
X191135047Y-131544190D01*
X184368190Y-131544190D02*
X184534857Y-131306095D01*
X184653904Y-131544190D02*
X184653904Y-131044190D01*
X184463428Y-131044190D01*
X184415809Y-131068000D01*
X184392000Y-131091810D01*
X184368190Y-131139429D01*
X184368190Y-131210857D01*
X184392000Y-131258476D01*
X184415809Y-131282286D01*
X184463428Y-131306095D01*
X184653904Y-131306095D01*
X184153904Y-131282286D02*
X183987238Y-131282286D01*
X183915809Y-131544190D02*
X184153904Y-131544190D01*
X184153904Y-131044190D01*
X183915809Y-131044190D01*
X183725333Y-131520381D02*
X183653904Y-131544190D01*
X183534857Y-131544190D01*
X183487238Y-131520381D01*
X183463428Y-131496571D01*
X183439619Y-131448952D01*
X183439619Y-131401333D01*
X183463428Y-131353714D01*
X183487238Y-131329905D01*
X183534857Y-131306095D01*
X183630095Y-131282286D01*
X183677714Y-131258476D01*
X183701523Y-131234667D01*
X183725333Y-131187048D01*
X183725333Y-131139429D01*
X183701523Y-131091810D01*
X183677714Y-131068000D01*
X183630095Y-131044190D01*
X183511047Y-131044190D01*
X183439619Y-131068000D01*
X183225333Y-131282286D02*
X183058667Y-131282286D01*
X182987238Y-131544190D02*
X183225333Y-131544190D01*
X183225333Y-131044190D01*
X182987238Y-131044190D01*
X182844381Y-131044190D02*
X182558667Y-131044190D01*
X182701524Y-131544190D02*
X182701524Y-131044190D01*
D12*
X171635000Y-130360000D02*
X171960000Y-130360000D01*
X171635000Y-137610000D02*
X171960000Y-137610000D01*
X178885000Y-137610000D02*
X178560000Y-137610000D01*
X178885000Y-130360000D02*
X178560000Y-130360000D01*
X171635000Y-130360000D02*
X171635000Y-130685000D01*
X178885000Y-130360000D02*
X178885000Y-130685000D01*
X178885000Y-137610000D02*
X178885000Y-137285000D01*
X171635000Y-137610000D02*
X171635000Y-137285000D01*
X171960000Y-130360000D02*
X171960000Y-128935000D01*
X171577000Y-123825000D02*
X171577000Y-120015000D01*
X190627000Y-123825000D02*
X190627000Y-120015000D01*
X181102000Y-123825000D02*
X190627000Y-123825000D01*
X181102000Y-123825000D02*
X171577000Y-123825000D01*
X185420000Y-135128000D02*
X185420000Y-130048000D01*
X185140000Y-137948000D02*
X186690000Y-137948000D01*
X187960000Y-137668000D02*
X187960000Y-135128000D01*
X187960000Y-135128000D02*
X185420000Y-135128000D01*
X185420000Y-130048000D02*
X190500000Y-130048000D01*
X190500000Y-130048000D02*
X190500000Y-135128000D01*
X185140000Y-137948000D02*
X185140000Y-136398000D01*
X190500000Y-137668000D02*
X187960000Y-137668000D01*
X190500000Y-135128000D02*
X190500000Y-137668000D01*
M02*
