G04 #@! TF.FileFunction,Soldermask,Bot*
%FSLAX46Y46*%
G04 Gerber Fmt 4.6, Leading zero omitted, Abs format (unit mm)*
G04 Created by KiCad (PCBNEW 4.0.1-3.201512221402+6198~38~ubuntu14.04.1-stable) date Sun 07 Feb 2016 23:01:24 GMT*
%MOMM*%
G01*
G04 APERTURE LIST*
%ADD10C,0.100000*%
%ADD11R,0.950000X2.000000*%
%ADD12R,2.000000X0.950000*%
%ADD13R,2.127200X2.432000*%
%ADD14O,2.127200X2.432000*%
%ADD15C,1.924000*%
%ADD16R,3.600000X3.600000*%
%ADD17R,2.127200X2.127200*%
%ADD18O,2.127200X2.127200*%
G04 APERTURE END LIST*
D10*
D11*
X172460000Y-129735000D03*
X173260000Y-129735000D03*
X174060000Y-129735000D03*
X174860000Y-129735000D03*
X175660000Y-129735000D03*
X176460000Y-129735000D03*
X177260000Y-129735000D03*
X178060000Y-129735000D03*
D12*
X179510000Y-131185000D03*
X179510000Y-131985000D03*
X179510000Y-132785000D03*
X179510000Y-133585000D03*
X179510000Y-134385000D03*
X179510000Y-135185000D03*
X179510000Y-135985000D03*
X179510000Y-136785000D03*
D11*
X178060000Y-138235000D03*
X177260000Y-138235000D03*
X176460000Y-138235000D03*
X175660000Y-138235000D03*
X174860000Y-138235000D03*
X174060000Y-138235000D03*
X173260000Y-138235000D03*
X172460000Y-138235000D03*
D12*
X171010000Y-136785000D03*
X171010000Y-135985000D03*
X171010000Y-135185000D03*
X171010000Y-134385000D03*
X171010000Y-133585000D03*
X171010000Y-132785000D03*
X171010000Y-131985000D03*
X171010000Y-131185000D03*
D13*
X164465000Y-121920000D03*
D14*
X167005000Y-121920000D03*
X169545000Y-121920000D03*
D15*
X164465000Y-125095000D03*
X161925000Y-125095000D03*
X167005000Y-125095000D03*
X174625000Y-125095000D03*
X169545000Y-125095000D03*
X172085000Y-125095000D03*
X187325000Y-125095000D03*
X184785000Y-125095000D03*
X189865000Y-125095000D03*
X182245000Y-125095000D03*
X177165000Y-125095000D03*
X179705000Y-125095000D03*
X179705000Y-142875000D03*
X177165000Y-142875000D03*
X182245000Y-142875000D03*
X189865000Y-142875000D03*
X184785000Y-142875000D03*
X187325000Y-142875000D03*
X172085000Y-142875000D03*
X169545000Y-142875000D03*
X174625000Y-142875000D03*
X167005000Y-142875000D03*
X161925000Y-142875000D03*
X164465000Y-142875000D03*
D16*
X190627000Y-116840000D03*
X171577000Y-116840000D03*
X181102000Y-116840000D03*
D17*
X186690000Y-136398000D03*
D18*
X189230000Y-136398000D03*
X186690000Y-133858000D03*
X189230000Y-133858000D03*
X186690000Y-131318000D03*
X189230000Y-131318000D03*
M02*
