G04 #@! TF.FileFunction,Copper,L2,Bot,Signal*
%FSLAX46Y46*%
G04 Gerber Fmt 4.6, Leading zero omitted, Abs format (unit mm)*
G04 Created by KiCad (PCBNEW 4.0.1-3.201512221402+6198~38~ubuntu14.04.1-stable) date Sun 07 Feb 2016 23:01:24 GMT*
%MOMM*%
G01*
G04 APERTURE LIST*
%ADD10C,0.100000*%
%ADD11R,0.550000X1.600000*%
%ADD12R,1.600000X0.550000*%
%ADD13R,1.727200X2.032000*%
%ADD14O,1.727200X2.032000*%
%ADD15C,1.524000*%
%ADD16R,3.200000X3.200000*%
%ADD17R,1.727200X1.727200*%
%ADD18O,1.727200X1.727200*%
%ADD19C,0.600000*%
%ADD20C,0.250000*%
%ADD21C,0.254000*%
G04 APERTURE END LIST*
D10*
D11*
X172460000Y-129735000D03*
X173260000Y-129735000D03*
X174060000Y-129735000D03*
X174860000Y-129735000D03*
X175660000Y-129735000D03*
X176460000Y-129735000D03*
X177260000Y-129735000D03*
X178060000Y-129735000D03*
D12*
X179510000Y-131185000D03*
X179510000Y-131985000D03*
X179510000Y-132785000D03*
X179510000Y-133585000D03*
X179510000Y-134385000D03*
X179510000Y-135185000D03*
X179510000Y-135985000D03*
X179510000Y-136785000D03*
D11*
X178060000Y-138235000D03*
X177260000Y-138235000D03*
X176460000Y-138235000D03*
X175660000Y-138235000D03*
X174860000Y-138235000D03*
X174060000Y-138235000D03*
X173260000Y-138235000D03*
X172460000Y-138235000D03*
D12*
X171010000Y-136785000D03*
X171010000Y-135985000D03*
X171010000Y-135185000D03*
X171010000Y-134385000D03*
X171010000Y-133585000D03*
X171010000Y-132785000D03*
X171010000Y-131985000D03*
X171010000Y-131185000D03*
D13*
X164465000Y-121920000D03*
D14*
X167005000Y-121920000D03*
X169545000Y-121920000D03*
D15*
X164465000Y-125095000D03*
X161925000Y-125095000D03*
X167005000Y-125095000D03*
X174625000Y-125095000D03*
X169545000Y-125095000D03*
X172085000Y-125095000D03*
X187325000Y-125095000D03*
X184785000Y-125095000D03*
X189865000Y-125095000D03*
X182245000Y-125095000D03*
X177165000Y-125095000D03*
X179705000Y-125095000D03*
X179705000Y-142875000D03*
X177165000Y-142875000D03*
X182245000Y-142875000D03*
X189865000Y-142875000D03*
X184785000Y-142875000D03*
X187325000Y-142875000D03*
X172085000Y-142875000D03*
X169545000Y-142875000D03*
X174625000Y-142875000D03*
X167005000Y-142875000D03*
X161925000Y-142875000D03*
X164465000Y-142875000D03*
D16*
X190627000Y-116840000D03*
X171577000Y-116840000D03*
X181102000Y-116840000D03*
D17*
X186690000Y-136398000D03*
D18*
X189230000Y-136398000D03*
X186690000Y-133858000D03*
X189230000Y-133858000D03*
X186690000Y-131318000D03*
X189230000Y-131318000D03*
D19*
X172466000Y-132842000D03*
X171958000Y-128016000D03*
X177800000Y-136398000D03*
X173990000Y-135636000D03*
X190246000Y-129540000D03*
X190754000Y-131572000D03*
X180848000Y-141224000D03*
X161798000Y-139954000D03*
X174752000Y-139954000D03*
X174498000Y-141478000D03*
X176530000Y-136398000D03*
X179578000Y-129032000D03*
X181356000Y-130302000D03*
X171704000Y-121412000D03*
X185674000Y-119380000D03*
X177546000Y-132842000D03*
X182880000Y-138176000D03*
X184912000Y-138176000D03*
X185674000Y-141224000D03*
X189484000Y-140716000D03*
X175514000Y-136398000D03*
X165608000Y-110998000D03*
X165608000Y-113792000D03*
X183642000Y-135382000D03*
X172466000Y-134874000D03*
X169164000Y-132842000D03*
X169164000Y-131826000D03*
X176276000Y-122428000D03*
X183896000Y-111760000D03*
D20*
X172466000Y-132842000D02*
X172460000Y-132836000D01*
X172460000Y-132836000D02*
X172460000Y-129735000D01*
X173260000Y-128302000D02*
X173260000Y-129735000D01*
X172974000Y-128016000D02*
X173260000Y-128302000D01*
X171958000Y-128016000D02*
X172974000Y-128016000D01*
X172085000Y-125095000D02*
X173990000Y-127000000D01*
X173990000Y-127000000D02*
X173990000Y-129665000D01*
X173990000Y-129665000D02*
X174060000Y-129735000D01*
X177260000Y-136938000D02*
X177800000Y-136398000D01*
X177260000Y-138235000D02*
X177260000Y-136938000D01*
X174860000Y-131464000D02*
X174860000Y-129735000D01*
X173482000Y-132842000D02*
X174860000Y-131464000D01*
X173482000Y-135128000D02*
X173482000Y-132842000D01*
X173990000Y-135636000D02*
X173482000Y-135128000D01*
X186690000Y-136398000D02*
X187960000Y-135128000D01*
X188976000Y-129540000D02*
X190246000Y-129540000D01*
X187960000Y-130556000D02*
X188976000Y-129540000D01*
X187960000Y-135128000D02*
X187960000Y-130556000D01*
X174860000Y-138235000D02*
X174860000Y-139554000D01*
X190500000Y-131318000D02*
X189230000Y-131318000D01*
X190754000Y-131572000D02*
X190500000Y-131318000D01*
X180848000Y-143764000D02*
X180848000Y-141224000D01*
X180340000Y-144272000D02*
X180848000Y-143764000D01*
X179070000Y-144272000D02*
X180340000Y-144272000D01*
X178308000Y-143510000D02*
X179070000Y-144272000D01*
X178308000Y-142240000D02*
X178308000Y-143510000D01*
X177800000Y-141732000D02*
X178308000Y-142240000D01*
X177038000Y-141732000D02*
X177800000Y-141732000D01*
X174860000Y-139554000D02*
X177038000Y-141732000D01*
X174860000Y-138235000D02*
X174860000Y-139846000D01*
X174860000Y-139846000D02*
X174752000Y-139954000D01*
X174860000Y-138235000D02*
X174860000Y-133750000D01*
X175660000Y-132950000D02*
X175660000Y-129735000D01*
X174860000Y-133750000D02*
X175660000Y-132950000D01*
X176460000Y-129735000D02*
X176460000Y-136328000D01*
X174625000Y-141605000D02*
X174625000Y-142875000D01*
X174498000Y-141478000D02*
X174625000Y-141605000D01*
X176460000Y-136328000D02*
X176530000Y-136398000D01*
X174625000Y-125095000D02*
X176530000Y-127000000D01*
X176530000Y-127000000D02*
X176530000Y-129665000D01*
X176530000Y-129665000D02*
X176460000Y-129735000D01*
X177165000Y-125095000D02*
X177165000Y-129640000D01*
X177165000Y-129640000D02*
X177260000Y-129735000D01*
X179705000Y-125095000D02*
X179705000Y-125349000D01*
X179705000Y-125349000D02*
X178060000Y-126994000D01*
X178060000Y-126994000D02*
X178060000Y-129735000D01*
X179510000Y-129100000D02*
X179510000Y-131185000D01*
X179578000Y-129032000D02*
X179510000Y-129100000D01*
X180943000Y-131985000D02*
X179510000Y-131985000D01*
X181356000Y-131572000D02*
X180943000Y-131985000D01*
X181356000Y-130302000D02*
X181356000Y-131572000D01*
X183642000Y-121412000D02*
X171704000Y-121412000D01*
X185674000Y-119380000D02*
X183642000Y-121412000D01*
X177603000Y-132785000D02*
X179510000Y-132785000D01*
X177546000Y-132842000D02*
X177603000Y-132785000D01*
X182245000Y-125095000D02*
X182245000Y-132969000D01*
X181629000Y-133585000D02*
X179510000Y-133585000D01*
X182245000Y-132969000D02*
X181629000Y-133585000D01*
X179510000Y-134385000D02*
X181591000Y-134385000D01*
X182880000Y-127000000D02*
X184785000Y-125095000D01*
X182880000Y-133096000D02*
X182880000Y-127000000D01*
X181591000Y-134385000D02*
X182880000Y-133096000D01*
X184785000Y-142875000D02*
X184785000Y-143129000D01*
X184785000Y-143129000D02*
X186182000Y-144526000D01*
X186182000Y-144526000D02*
X190246000Y-144526000D01*
X190246000Y-144526000D02*
X191516000Y-143256000D01*
X191516000Y-143256000D02*
X191516000Y-124460000D01*
X191516000Y-124460000D02*
X190500000Y-123444000D01*
X190500000Y-123444000D02*
X186436000Y-123444000D01*
X186436000Y-123444000D02*
X184785000Y-125095000D01*
X179510000Y-135185000D02*
X181553000Y-135185000D01*
X185928000Y-126492000D02*
X187325000Y-125095000D01*
X184404000Y-126492000D02*
X185928000Y-126492000D01*
X183642000Y-127254000D02*
X184404000Y-126492000D01*
X183642000Y-133096000D02*
X183642000Y-127254000D01*
X181553000Y-135185000D02*
X183642000Y-133096000D01*
X189230000Y-136398000D02*
X189230000Y-138176000D01*
X180689000Y-135985000D02*
X179510000Y-135985000D01*
X182880000Y-138176000D02*
X180689000Y-135985000D01*
X189230000Y-138176000D02*
X184912000Y-138176000D01*
X179510000Y-135985000D02*
X181769000Y-135985000D01*
X187706000Y-127254000D02*
X189865000Y-125095000D01*
X184912000Y-127254000D02*
X187706000Y-127254000D01*
X184404000Y-127762000D02*
X184912000Y-127254000D01*
X184404000Y-133350000D02*
X184404000Y-127762000D01*
X181769000Y-135985000D02*
X184404000Y-133350000D01*
X186690000Y-133858000D02*
X183896000Y-136652000D01*
X181917000Y-139192000D02*
X179510000Y-136785000D01*
X183642000Y-139192000D02*
X181917000Y-139192000D01*
X183896000Y-138938000D02*
X183642000Y-139192000D01*
X183896000Y-136652000D02*
X183896000Y-138938000D01*
X189865000Y-142875000D02*
X189865000Y-142621000D01*
X189865000Y-142621000D02*
X186944000Y-139700000D01*
X186944000Y-139700000D02*
X180594000Y-139700000D01*
X180594000Y-139700000D02*
X179510000Y-138616000D01*
X179510000Y-138616000D02*
X179510000Y-136785000D01*
X189230000Y-133858000D02*
X191008000Y-133858000D01*
X185674000Y-141224000D02*
X187325000Y-142875000D01*
X190246000Y-140716000D02*
X189484000Y-140716000D01*
X191008000Y-139954000D02*
X190246000Y-140716000D01*
X191008000Y-133858000D02*
X191008000Y-139954000D01*
X187325000Y-142875000D02*
X187325000Y-140843000D01*
X178060000Y-139960000D02*
X178060000Y-138235000D01*
X178308000Y-140208000D02*
X178060000Y-139960000D01*
X186690000Y-140208000D02*
X178308000Y-140208000D01*
X187325000Y-140843000D02*
X186690000Y-140208000D01*
X179705000Y-142875000D02*
X179705000Y-141605000D01*
X176460000Y-140392000D02*
X176460000Y-138235000D01*
X177038000Y-140970000D02*
X176460000Y-140392000D01*
X179070000Y-140970000D02*
X177038000Y-140970000D01*
X179705000Y-141605000D02*
X179070000Y-140970000D01*
X175660000Y-136544000D02*
X175660000Y-138235000D01*
X175514000Y-136398000D02*
X175660000Y-136544000D01*
X165608000Y-113792000D02*
X165608000Y-110998000D01*
X177165000Y-142875000D02*
X177165000Y-142621000D01*
X177165000Y-142621000D02*
X175260000Y-140716000D01*
X175260000Y-140716000D02*
X174498000Y-140716000D01*
X174498000Y-140716000D02*
X174060000Y-140278000D01*
X174060000Y-140278000D02*
X174060000Y-138235000D01*
X169545000Y-142875000D02*
X171450000Y-140970000D01*
X173260000Y-140938000D02*
X173260000Y-138235000D01*
X173228000Y-140970000D02*
X173260000Y-140938000D01*
X171450000Y-140970000D02*
X173228000Y-140970000D01*
X167005000Y-142875000D02*
X169164000Y-140716000D01*
X172466000Y-139700000D02*
X172466000Y-138241000D01*
X171958000Y-140208000D02*
X172466000Y-139700000D01*
X169672000Y-140208000D02*
X171958000Y-140208000D01*
X169164000Y-140716000D02*
X169672000Y-140208000D01*
X172466000Y-138241000D02*
X172460000Y-138235000D01*
X161925000Y-125095000D02*
X161925000Y-135255000D01*
X163455000Y-136785000D02*
X171010000Y-136785000D01*
X161925000Y-135255000D02*
X163455000Y-136785000D01*
X164465000Y-142875000D02*
X164465000Y-138049000D01*
X163068000Y-123698000D02*
X164465000Y-125095000D01*
X161544000Y-123698000D02*
X163068000Y-123698000D01*
X160528000Y-124714000D02*
X161544000Y-123698000D01*
X160528000Y-125476000D02*
X160528000Y-124714000D01*
X161036000Y-125984000D02*
X160528000Y-125476000D01*
X161036000Y-135636000D02*
X161036000Y-125984000D01*
X163322000Y-137922000D02*
X161036000Y-135636000D01*
X164338000Y-137922000D02*
X163322000Y-137922000D01*
X164465000Y-138049000D02*
X164338000Y-137922000D01*
X164465000Y-125095000D02*
X164465000Y-134747000D01*
X165703000Y-135985000D02*
X171010000Y-135985000D01*
X164465000Y-134747000D02*
X165703000Y-135985000D01*
X167005000Y-125095000D02*
X167005000Y-134493000D01*
X167697000Y-135185000D02*
X171010000Y-135185000D01*
X167005000Y-134493000D02*
X167697000Y-135185000D01*
X169545000Y-125095000D02*
X169545000Y-125857000D01*
X169545000Y-125857000D02*
X168402000Y-127000000D01*
X168402000Y-127000000D02*
X168402000Y-133858000D01*
X168402000Y-133858000D02*
X168929000Y-134385000D01*
X168929000Y-134385000D02*
X171010000Y-134385000D01*
X186690000Y-131318000D02*
X186690000Y-131826000D01*
X186690000Y-131826000D02*
X183642000Y-134874000D01*
X183642000Y-134874000D02*
X183642000Y-135382000D01*
X172466000Y-134874000D02*
X172466000Y-133858000D01*
X172466000Y-133858000D02*
X172193000Y-133585000D01*
X172193000Y-133585000D02*
X171010000Y-133585000D01*
X171010000Y-132785000D02*
X169221000Y-132785000D01*
X169221000Y-132785000D02*
X169164000Y-132842000D01*
X171010000Y-131985000D02*
X169323000Y-131985000D01*
X169323000Y-131985000D02*
X169164000Y-131826000D01*
X171010000Y-131185000D02*
X171010000Y-126306000D01*
X176276000Y-122682000D02*
X176276000Y-122428000D01*
X175768000Y-123190000D02*
X176276000Y-122682000D01*
X171958000Y-123190000D02*
X175768000Y-123190000D01*
X170942000Y-124206000D02*
X171958000Y-123190000D01*
X170942000Y-126238000D02*
X170942000Y-124206000D01*
X171010000Y-126306000D02*
X170942000Y-126238000D01*
X190627000Y-116840000D02*
X190627000Y-116459000D01*
X190627000Y-116459000D02*
X185928000Y-111760000D01*
X175768000Y-111760000D02*
X171577000Y-115951000D01*
X185928000Y-111760000D02*
X175768000Y-111760000D01*
X171577000Y-115951000D02*
X171577000Y-116840000D01*
X190627000Y-116840000D02*
X188976000Y-116840000D01*
X188976000Y-116840000D02*
X183896000Y-111760000D01*
X171577000Y-116840000D02*
X171577000Y-116713000D01*
D21*
G36*
X164673162Y-110811201D02*
X164672838Y-111183167D01*
X164814883Y-111526943D01*
X164848000Y-111560118D01*
X164848000Y-113229537D01*
X164815808Y-113261673D01*
X164673162Y-113605201D01*
X164672838Y-113977167D01*
X164814883Y-114320943D01*
X165077673Y-114584192D01*
X165421201Y-114726838D01*
X165793167Y-114727162D01*
X166136943Y-114585117D01*
X166400192Y-114322327D01*
X166542838Y-113978799D01*
X166543162Y-113606833D01*
X166401117Y-113263057D01*
X166368000Y-113229882D01*
X166368000Y-111560463D01*
X166400192Y-111528327D01*
X166542838Y-111184799D01*
X166543162Y-110812833D01*
X166440760Y-110565000D01*
X184577334Y-110565000D01*
X190188973Y-110616483D01*
X192330000Y-112995402D01*
X192330000Y-114613418D01*
X192227000Y-114592560D01*
X189835362Y-114592560D01*
X186465401Y-111222599D01*
X186218839Y-111057852D01*
X185928000Y-111000000D01*
X184458463Y-111000000D01*
X184426327Y-110967808D01*
X184082799Y-110825162D01*
X183710833Y-110824838D01*
X183367057Y-110966883D01*
X183333882Y-111000000D01*
X175768000Y-111000000D01*
X175477161Y-111057852D01*
X175230599Y-111222599D01*
X171860638Y-114592560D01*
X169977000Y-114592560D01*
X169741683Y-114636838D01*
X169525559Y-114775910D01*
X169380569Y-114988110D01*
X169329560Y-115240000D01*
X169329560Y-118440000D01*
X169373838Y-118675317D01*
X169512910Y-118891441D01*
X169725110Y-119036431D01*
X169977000Y-119087440D01*
X173177000Y-119087440D01*
X173412317Y-119043162D01*
X173628441Y-118904090D01*
X173773431Y-118691890D01*
X173824440Y-118440000D01*
X173824440Y-117125750D01*
X178867000Y-117125750D01*
X178867000Y-118566310D01*
X178963673Y-118799699D01*
X179142302Y-118978327D01*
X179375691Y-119075000D01*
X180816250Y-119075000D01*
X180975000Y-118916250D01*
X180975000Y-116967000D01*
X181229000Y-116967000D01*
X181229000Y-118916250D01*
X181387750Y-119075000D01*
X182828309Y-119075000D01*
X183061698Y-118978327D01*
X183240327Y-118799699D01*
X183337000Y-118566310D01*
X183337000Y-117125750D01*
X183178250Y-116967000D01*
X181229000Y-116967000D01*
X180975000Y-116967000D01*
X179025750Y-116967000D01*
X178867000Y-117125750D01*
X173824440Y-117125750D01*
X173824440Y-115240000D01*
X173800674Y-115113690D01*
X178867000Y-115113690D01*
X178867000Y-116554250D01*
X179025750Y-116713000D01*
X180975000Y-116713000D01*
X180975000Y-114763750D01*
X181229000Y-114763750D01*
X181229000Y-116713000D01*
X183178250Y-116713000D01*
X183337000Y-116554250D01*
X183337000Y-115113690D01*
X183240327Y-114880301D01*
X183061698Y-114701673D01*
X182828309Y-114605000D01*
X181387750Y-114605000D01*
X181229000Y-114763750D01*
X180975000Y-114763750D01*
X180816250Y-114605000D01*
X179375691Y-114605000D01*
X179142302Y-114701673D01*
X178963673Y-114880301D01*
X178867000Y-115113690D01*
X173800674Y-115113690D01*
X173780162Y-115004683D01*
X173708886Y-114893916D01*
X176082802Y-112520000D01*
X183333537Y-112520000D01*
X183365673Y-112552192D01*
X183709201Y-112694838D01*
X183756077Y-112694879D01*
X188379560Y-117318362D01*
X188379560Y-118440000D01*
X188423838Y-118675317D01*
X188562910Y-118891441D01*
X188775110Y-119036431D01*
X189027000Y-119087440D01*
X192227000Y-119087440D01*
X192330000Y-119068059D01*
X192330000Y-142580909D01*
X192276000Y-142634909D01*
X192276000Y-124460000D01*
X192218148Y-124169161D01*
X192053401Y-123922599D01*
X191037401Y-122906599D01*
X190790839Y-122741852D01*
X190500000Y-122684000D01*
X186436000Y-122684000D01*
X186145161Y-122741852D01*
X185898599Y-122906599D01*
X185094381Y-123710817D01*
X185064100Y-123698243D01*
X184508339Y-123697758D01*
X183994697Y-123909990D01*
X183601371Y-124302630D01*
X183515051Y-124510512D01*
X183430010Y-124304697D01*
X183037370Y-123911371D01*
X182524100Y-123698243D01*
X181968339Y-123697758D01*
X181454697Y-123909990D01*
X181061371Y-124302630D01*
X180975051Y-124510512D01*
X180890010Y-124304697D01*
X180497370Y-123911371D01*
X179984100Y-123698243D01*
X179428339Y-123697758D01*
X178914697Y-123909990D01*
X178521371Y-124302630D01*
X178435051Y-124510512D01*
X178350010Y-124304697D01*
X177957370Y-123911371D01*
X177444100Y-123698243D01*
X176888339Y-123697758D01*
X176374697Y-123909990D01*
X175981371Y-124302630D01*
X175895051Y-124510512D01*
X175810010Y-124304697D01*
X175455932Y-123950000D01*
X175768000Y-123950000D01*
X176058839Y-123892148D01*
X176305401Y-123727401D01*
X176813401Y-123219401D01*
X176826900Y-123199198D01*
X177068192Y-122958327D01*
X177210838Y-122614799D01*
X177211162Y-122242833D01*
X177181894Y-122172000D01*
X183642000Y-122172000D01*
X183932839Y-122114148D01*
X184179401Y-121949401D01*
X185813680Y-120315122D01*
X185859167Y-120315162D01*
X186202943Y-120173117D01*
X186466192Y-119910327D01*
X186608838Y-119566799D01*
X186609162Y-119194833D01*
X186467117Y-118851057D01*
X186204327Y-118587808D01*
X185860799Y-118445162D01*
X185488833Y-118444838D01*
X185145057Y-118586883D01*
X184881808Y-118849673D01*
X184739162Y-119193201D01*
X184739121Y-119240077D01*
X183327198Y-120652000D01*
X172266463Y-120652000D01*
X172234327Y-120619808D01*
X171890799Y-120477162D01*
X171518833Y-120476838D01*
X171175057Y-120618883D01*
X170911808Y-120881673D01*
X170846869Y-121038062D01*
X170604670Y-120675585D01*
X170118489Y-120350729D01*
X169545000Y-120236655D01*
X168971511Y-120350729D01*
X168485330Y-120675585D01*
X168275000Y-120990366D01*
X168064670Y-120675585D01*
X167578489Y-120350729D01*
X167005000Y-120236655D01*
X166431511Y-120350729D01*
X165945330Y-120675585D01*
X165935757Y-120689913D01*
X165931762Y-120668683D01*
X165792690Y-120452559D01*
X165580490Y-120307569D01*
X165328600Y-120256560D01*
X163601400Y-120256560D01*
X163366083Y-120300838D01*
X163149959Y-120439910D01*
X163004969Y-120652110D01*
X162953960Y-120904000D01*
X162953960Y-122936000D01*
X162954336Y-122938000D01*
X161544000Y-122938000D01*
X161253161Y-122995852D01*
X161006599Y-123160599D01*
X159990599Y-124176599D01*
X159825852Y-124423161D01*
X159768000Y-124714000D01*
X159768000Y-125476000D01*
X159825852Y-125766839D01*
X159990599Y-126013401D01*
X160276000Y-126298802D01*
X160276000Y-135636000D01*
X160333852Y-135926839D01*
X160498599Y-136173401D01*
X162784599Y-138459401D01*
X163031160Y-138624148D01*
X163322000Y-138682000D01*
X163705000Y-138682000D01*
X163705000Y-141677469D01*
X163674697Y-141689990D01*
X163281371Y-142082630D01*
X163201605Y-142274727D01*
X163147397Y-142143857D01*
X162905213Y-142074392D01*
X162104605Y-142875000D01*
X162905213Y-143675608D01*
X163147397Y-143606143D01*
X163197509Y-143465682D01*
X163279990Y-143665303D01*
X163672630Y-144058629D01*
X164185900Y-144271757D01*
X164741661Y-144272242D01*
X165255303Y-144060010D01*
X165648629Y-143667370D01*
X165734949Y-143459488D01*
X165819990Y-143665303D01*
X166212630Y-144058629D01*
X166725900Y-144271757D01*
X167281661Y-144272242D01*
X167795303Y-144060010D01*
X168188629Y-143667370D01*
X168274949Y-143459488D01*
X168359990Y-143665303D01*
X168752630Y-144058629D01*
X169265900Y-144271757D01*
X169821661Y-144272242D01*
X170335303Y-144060010D01*
X170728629Y-143667370D01*
X170814949Y-143459488D01*
X170899990Y-143665303D01*
X171292630Y-144058629D01*
X171805900Y-144271757D01*
X172361661Y-144272242D01*
X172875303Y-144060010D01*
X173268629Y-143667370D01*
X173354949Y-143459488D01*
X173439990Y-143665303D01*
X173832630Y-144058629D01*
X174345900Y-144271757D01*
X174901661Y-144272242D01*
X175415303Y-144060010D01*
X175808629Y-143667370D01*
X175894949Y-143459488D01*
X175979990Y-143665303D01*
X176372630Y-144058629D01*
X176885900Y-144271757D01*
X177441661Y-144272242D01*
X177955303Y-144060010D01*
X178348629Y-143667370D01*
X178434949Y-143459488D01*
X178519990Y-143665303D01*
X178912630Y-144058629D01*
X179425900Y-144271757D01*
X179981661Y-144272242D01*
X180495303Y-144060010D01*
X180888629Y-143667370D01*
X180974949Y-143459488D01*
X181059990Y-143665303D01*
X181452630Y-144058629D01*
X181965900Y-144271757D01*
X182521661Y-144272242D01*
X183035303Y-144060010D01*
X183428629Y-143667370D01*
X183514949Y-143459488D01*
X183599990Y-143665303D01*
X183992630Y-144058629D01*
X184505900Y-144271757D01*
X184853258Y-144272060D01*
X185286198Y-144705000D01*
X167270550Y-144705000D01*
X161534210Y-144655119D01*
X160734305Y-143855213D01*
X161124392Y-143855213D01*
X161193857Y-144097397D01*
X161717302Y-144284144D01*
X162272368Y-144256362D01*
X162656143Y-144097397D01*
X162725608Y-143855213D01*
X161925000Y-143054605D01*
X161124392Y-143855213D01*
X160734305Y-143855213D01*
X159866545Y-142987453D01*
X159581967Y-142667302D01*
X160515856Y-142667302D01*
X160543638Y-143222368D01*
X160702603Y-143606143D01*
X160944787Y-143675608D01*
X161745395Y-142875000D01*
X160944787Y-142074392D01*
X160702603Y-142143857D01*
X160515856Y-142667302D01*
X159581967Y-142667302D01*
X159460000Y-142530090D01*
X159460000Y-141894787D01*
X161124392Y-141894787D01*
X161925000Y-142695395D01*
X162725608Y-141894787D01*
X162656143Y-141652603D01*
X162132698Y-141465856D01*
X161577632Y-141493638D01*
X161193857Y-141652603D01*
X161124392Y-141894787D01*
X159460000Y-141894787D01*
X159460000Y-113515606D01*
X162410606Y-110565000D01*
X164775394Y-110565000D01*
X164673162Y-110811201D01*
X164673162Y-110811201D01*
G37*
X164673162Y-110811201D02*
X164672838Y-111183167D01*
X164814883Y-111526943D01*
X164848000Y-111560118D01*
X164848000Y-113229537D01*
X164815808Y-113261673D01*
X164673162Y-113605201D01*
X164672838Y-113977167D01*
X164814883Y-114320943D01*
X165077673Y-114584192D01*
X165421201Y-114726838D01*
X165793167Y-114727162D01*
X166136943Y-114585117D01*
X166400192Y-114322327D01*
X166542838Y-113978799D01*
X166543162Y-113606833D01*
X166401117Y-113263057D01*
X166368000Y-113229882D01*
X166368000Y-111560463D01*
X166400192Y-111528327D01*
X166542838Y-111184799D01*
X166543162Y-110812833D01*
X166440760Y-110565000D01*
X184577334Y-110565000D01*
X190188973Y-110616483D01*
X192330000Y-112995402D01*
X192330000Y-114613418D01*
X192227000Y-114592560D01*
X189835362Y-114592560D01*
X186465401Y-111222599D01*
X186218839Y-111057852D01*
X185928000Y-111000000D01*
X184458463Y-111000000D01*
X184426327Y-110967808D01*
X184082799Y-110825162D01*
X183710833Y-110824838D01*
X183367057Y-110966883D01*
X183333882Y-111000000D01*
X175768000Y-111000000D01*
X175477161Y-111057852D01*
X175230599Y-111222599D01*
X171860638Y-114592560D01*
X169977000Y-114592560D01*
X169741683Y-114636838D01*
X169525559Y-114775910D01*
X169380569Y-114988110D01*
X169329560Y-115240000D01*
X169329560Y-118440000D01*
X169373838Y-118675317D01*
X169512910Y-118891441D01*
X169725110Y-119036431D01*
X169977000Y-119087440D01*
X173177000Y-119087440D01*
X173412317Y-119043162D01*
X173628441Y-118904090D01*
X173773431Y-118691890D01*
X173824440Y-118440000D01*
X173824440Y-117125750D01*
X178867000Y-117125750D01*
X178867000Y-118566310D01*
X178963673Y-118799699D01*
X179142302Y-118978327D01*
X179375691Y-119075000D01*
X180816250Y-119075000D01*
X180975000Y-118916250D01*
X180975000Y-116967000D01*
X181229000Y-116967000D01*
X181229000Y-118916250D01*
X181387750Y-119075000D01*
X182828309Y-119075000D01*
X183061698Y-118978327D01*
X183240327Y-118799699D01*
X183337000Y-118566310D01*
X183337000Y-117125750D01*
X183178250Y-116967000D01*
X181229000Y-116967000D01*
X180975000Y-116967000D01*
X179025750Y-116967000D01*
X178867000Y-117125750D01*
X173824440Y-117125750D01*
X173824440Y-115240000D01*
X173800674Y-115113690D01*
X178867000Y-115113690D01*
X178867000Y-116554250D01*
X179025750Y-116713000D01*
X180975000Y-116713000D01*
X180975000Y-114763750D01*
X181229000Y-114763750D01*
X181229000Y-116713000D01*
X183178250Y-116713000D01*
X183337000Y-116554250D01*
X183337000Y-115113690D01*
X183240327Y-114880301D01*
X183061698Y-114701673D01*
X182828309Y-114605000D01*
X181387750Y-114605000D01*
X181229000Y-114763750D01*
X180975000Y-114763750D01*
X180816250Y-114605000D01*
X179375691Y-114605000D01*
X179142302Y-114701673D01*
X178963673Y-114880301D01*
X178867000Y-115113690D01*
X173800674Y-115113690D01*
X173780162Y-115004683D01*
X173708886Y-114893916D01*
X176082802Y-112520000D01*
X183333537Y-112520000D01*
X183365673Y-112552192D01*
X183709201Y-112694838D01*
X183756077Y-112694879D01*
X188379560Y-117318362D01*
X188379560Y-118440000D01*
X188423838Y-118675317D01*
X188562910Y-118891441D01*
X188775110Y-119036431D01*
X189027000Y-119087440D01*
X192227000Y-119087440D01*
X192330000Y-119068059D01*
X192330000Y-142580909D01*
X192276000Y-142634909D01*
X192276000Y-124460000D01*
X192218148Y-124169161D01*
X192053401Y-123922599D01*
X191037401Y-122906599D01*
X190790839Y-122741852D01*
X190500000Y-122684000D01*
X186436000Y-122684000D01*
X186145161Y-122741852D01*
X185898599Y-122906599D01*
X185094381Y-123710817D01*
X185064100Y-123698243D01*
X184508339Y-123697758D01*
X183994697Y-123909990D01*
X183601371Y-124302630D01*
X183515051Y-124510512D01*
X183430010Y-124304697D01*
X183037370Y-123911371D01*
X182524100Y-123698243D01*
X181968339Y-123697758D01*
X181454697Y-123909990D01*
X181061371Y-124302630D01*
X180975051Y-124510512D01*
X180890010Y-124304697D01*
X180497370Y-123911371D01*
X179984100Y-123698243D01*
X179428339Y-123697758D01*
X178914697Y-123909990D01*
X178521371Y-124302630D01*
X178435051Y-124510512D01*
X178350010Y-124304697D01*
X177957370Y-123911371D01*
X177444100Y-123698243D01*
X176888339Y-123697758D01*
X176374697Y-123909990D01*
X175981371Y-124302630D01*
X175895051Y-124510512D01*
X175810010Y-124304697D01*
X175455932Y-123950000D01*
X175768000Y-123950000D01*
X176058839Y-123892148D01*
X176305401Y-123727401D01*
X176813401Y-123219401D01*
X176826900Y-123199198D01*
X177068192Y-122958327D01*
X177210838Y-122614799D01*
X177211162Y-122242833D01*
X177181894Y-122172000D01*
X183642000Y-122172000D01*
X183932839Y-122114148D01*
X184179401Y-121949401D01*
X185813680Y-120315122D01*
X185859167Y-120315162D01*
X186202943Y-120173117D01*
X186466192Y-119910327D01*
X186608838Y-119566799D01*
X186609162Y-119194833D01*
X186467117Y-118851057D01*
X186204327Y-118587808D01*
X185860799Y-118445162D01*
X185488833Y-118444838D01*
X185145057Y-118586883D01*
X184881808Y-118849673D01*
X184739162Y-119193201D01*
X184739121Y-119240077D01*
X183327198Y-120652000D01*
X172266463Y-120652000D01*
X172234327Y-120619808D01*
X171890799Y-120477162D01*
X171518833Y-120476838D01*
X171175057Y-120618883D01*
X170911808Y-120881673D01*
X170846869Y-121038062D01*
X170604670Y-120675585D01*
X170118489Y-120350729D01*
X169545000Y-120236655D01*
X168971511Y-120350729D01*
X168485330Y-120675585D01*
X168275000Y-120990366D01*
X168064670Y-120675585D01*
X167578489Y-120350729D01*
X167005000Y-120236655D01*
X166431511Y-120350729D01*
X165945330Y-120675585D01*
X165935757Y-120689913D01*
X165931762Y-120668683D01*
X165792690Y-120452559D01*
X165580490Y-120307569D01*
X165328600Y-120256560D01*
X163601400Y-120256560D01*
X163366083Y-120300838D01*
X163149959Y-120439910D01*
X163004969Y-120652110D01*
X162953960Y-120904000D01*
X162953960Y-122936000D01*
X162954336Y-122938000D01*
X161544000Y-122938000D01*
X161253161Y-122995852D01*
X161006599Y-123160599D01*
X159990599Y-124176599D01*
X159825852Y-124423161D01*
X159768000Y-124714000D01*
X159768000Y-125476000D01*
X159825852Y-125766839D01*
X159990599Y-126013401D01*
X160276000Y-126298802D01*
X160276000Y-135636000D01*
X160333852Y-135926839D01*
X160498599Y-136173401D01*
X162784599Y-138459401D01*
X163031160Y-138624148D01*
X163322000Y-138682000D01*
X163705000Y-138682000D01*
X163705000Y-141677469D01*
X163674697Y-141689990D01*
X163281371Y-142082630D01*
X163201605Y-142274727D01*
X163147397Y-142143857D01*
X162905213Y-142074392D01*
X162104605Y-142875000D01*
X162905213Y-143675608D01*
X163147397Y-143606143D01*
X163197509Y-143465682D01*
X163279990Y-143665303D01*
X163672630Y-144058629D01*
X164185900Y-144271757D01*
X164741661Y-144272242D01*
X165255303Y-144060010D01*
X165648629Y-143667370D01*
X165734949Y-143459488D01*
X165819990Y-143665303D01*
X166212630Y-144058629D01*
X166725900Y-144271757D01*
X167281661Y-144272242D01*
X167795303Y-144060010D01*
X168188629Y-143667370D01*
X168274949Y-143459488D01*
X168359990Y-143665303D01*
X168752630Y-144058629D01*
X169265900Y-144271757D01*
X169821661Y-144272242D01*
X170335303Y-144060010D01*
X170728629Y-143667370D01*
X170814949Y-143459488D01*
X170899990Y-143665303D01*
X171292630Y-144058629D01*
X171805900Y-144271757D01*
X172361661Y-144272242D01*
X172875303Y-144060010D01*
X173268629Y-143667370D01*
X173354949Y-143459488D01*
X173439990Y-143665303D01*
X173832630Y-144058629D01*
X174345900Y-144271757D01*
X174901661Y-144272242D01*
X175415303Y-144060010D01*
X175808629Y-143667370D01*
X175894949Y-143459488D01*
X175979990Y-143665303D01*
X176372630Y-144058629D01*
X176885900Y-144271757D01*
X177441661Y-144272242D01*
X177955303Y-144060010D01*
X178348629Y-143667370D01*
X178434949Y-143459488D01*
X178519990Y-143665303D01*
X178912630Y-144058629D01*
X179425900Y-144271757D01*
X179981661Y-144272242D01*
X180495303Y-144060010D01*
X180888629Y-143667370D01*
X180974949Y-143459488D01*
X181059990Y-143665303D01*
X181452630Y-144058629D01*
X181965900Y-144271757D01*
X182521661Y-144272242D01*
X183035303Y-144060010D01*
X183428629Y-143667370D01*
X183514949Y-143459488D01*
X183599990Y-143665303D01*
X183992630Y-144058629D01*
X184505900Y-144271757D01*
X184853258Y-144272060D01*
X185286198Y-144705000D01*
X167270550Y-144705000D01*
X161534210Y-144655119D01*
X160734305Y-143855213D01*
X161124392Y-143855213D01*
X161193857Y-144097397D01*
X161717302Y-144284144D01*
X162272368Y-144256362D01*
X162656143Y-144097397D01*
X162725608Y-143855213D01*
X161925000Y-143054605D01*
X161124392Y-143855213D01*
X160734305Y-143855213D01*
X159866545Y-142987453D01*
X159581967Y-142667302D01*
X160515856Y-142667302D01*
X160543638Y-143222368D01*
X160702603Y-143606143D01*
X160944787Y-143675608D01*
X161745395Y-142875000D01*
X160944787Y-142074392D01*
X160702603Y-142143857D01*
X160515856Y-142667302D01*
X159581967Y-142667302D01*
X159460000Y-142530090D01*
X159460000Y-141894787D01*
X161124392Y-141894787D01*
X161925000Y-142695395D01*
X162725608Y-141894787D01*
X162656143Y-141652603D01*
X162132698Y-141465856D01*
X161577632Y-141493638D01*
X161193857Y-141652603D01*
X161124392Y-141894787D01*
X159460000Y-141894787D01*
X159460000Y-113515606D01*
X162410606Y-110565000D01*
X164775394Y-110565000D01*
X164673162Y-110811201D01*
G36*
X184739162Y-141037201D02*
X184738838Y-141409167D01*
X184767273Y-141477984D01*
X184508339Y-141477758D01*
X183994697Y-141689990D01*
X183601371Y-142082630D01*
X183515051Y-142290512D01*
X183430010Y-142084697D01*
X183037370Y-141691371D01*
X182524100Y-141478243D01*
X181968339Y-141477758D01*
X181454697Y-141689990D01*
X181061371Y-142082630D01*
X180975051Y-142290512D01*
X180890010Y-142084697D01*
X180497370Y-141691371D01*
X180465000Y-141677930D01*
X180465000Y-141605000D01*
X180407148Y-141314161D01*
X180242401Y-141067599D01*
X180142802Y-140968000D01*
X184767897Y-140968000D01*
X184739162Y-141037201D01*
X184739162Y-141037201D01*
G37*
X184739162Y-141037201D02*
X184738838Y-141409167D01*
X184767273Y-141477984D01*
X184508339Y-141477758D01*
X183994697Y-141689990D01*
X183601371Y-142082630D01*
X183515051Y-142290512D01*
X183430010Y-142084697D01*
X183037370Y-141691371D01*
X182524100Y-141478243D01*
X181968339Y-141477758D01*
X181454697Y-141689990D01*
X181061371Y-142082630D01*
X180975051Y-142290512D01*
X180890010Y-142084697D01*
X180497370Y-141691371D01*
X180465000Y-141677930D01*
X180465000Y-141605000D01*
X180407148Y-141314161D01*
X180242401Y-141067599D01*
X180142802Y-140968000D01*
X184767897Y-140968000D01*
X184739162Y-141037201D01*
G36*
X174920910Y-139486441D02*
X175051245Y-139575495D01*
X175145750Y-139670000D01*
X175261310Y-139670000D01*
X175281753Y-139661532D01*
X175385000Y-139682440D01*
X175700000Y-139682440D01*
X175700000Y-140113518D01*
X175550839Y-140013852D01*
X175260000Y-139956000D01*
X174820000Y-139956000D01*
X174820000Y-139449975D01*
X174859884Y-139391603D01*
X174920910Y-139486441D01*
X174920910Y-139486441D01*
G37*
X174920910Y-139486441D02*
X175051245Y-139575495D01*
X175145750Y-139670000D01*
X175261310Y-139670000D01*
X175281753Y-139661532D01*
X175385000Y-139682440D01*
X175700000Y-139682440D01*
X175700000Y-140113518D01*
X175550839Y-140013852D01*
X175260000Y-139956000D01*
X174820000Y-139956000D01*
X174820000Y-139449975D01*
X174859884Y-139391603D01*
X174920910Y-139486441D01*
G36*
X175700000Y-130953946D02*
X175700000Y-135463161D01*
X175328833Y-135462838D01*
X174985057Y-135604883D01*
X174924976Y-135664860D01*
X174925162Y-135450833D01*
X174783117Y-135107057D01*
X174520327Y-134843808D01*
X174242000Y-134728236D01*
X174242000Y-133156802D01*
X175397401Y-132001401D01*
X175562148Y-131754840D01*
X175620000Y-131464000D01*
X175620000Y-130949975D01*
X175659884Y-130891603D01*
X175700000Y-130953946D01*
X175700000Y-130953946D01*
G37*
X175700000Y-130953946D02*
X175700000Y-135463161D01*
X175328833Y-135462838D01*
X174985057Y-135604883D01*
X174924976Y-135664860D01*
X174925162Y-135450833D01*
X174783117Y-135107057D01*
X174520327Y-134843808D01*
X174242000Y-134728236D01*
X174242000Y-133156802D01*
X175397401Y-132001401D01*
X175562148Y-131754840D01*
X175620000Y-131464000D01*
X175620000Y-130949975D01*
X175659884Y-130891603D01*
X175700000Y-130953946D01*
G36*
X190756000Y-133098000D02*
X190519262Y-133098000D01*
X190319029Y-132798330D01*
X189995772Y-132582336D01*
X190118490Y-132524821D01*
X190512688Y-132092947D01*
X190684958Y-131677026D01*
X190563817Y-131445000D01*
X189357000Y-131445000D01*
X189357000Y-131465000D01*
X189103000Y-131465000D01*
X189103000Y-131445000D01*
X189083000Y-131445000D01*
X189083000Y-131191000D01*
X189103000Y-131191000D01*
X189103000Y-131171000D01*
X189357000Y-131171000D01*
X189357000Y-131191000D01*
X190563817Y-131191000D01*
X190684958Y-130958974D01*
X190512688Y-130543053D01*
X190445365Y-130469296D01*
X190756000Y-130340944D01*
X190756000Y-133098000D01*
X190756000Y-133098000D01*
G37*
X190756000Y-133098000D02*
X190519262Y-133098000D01*
X190319029Y-132798330D01*
X189995772Y-132582336D01*
X190118490Y-132524821D01*
X190512688Y-132092947D01*
X190684958Y-131677026D01*
X190563817Y-131445000D01*
X189357000Y-131445000D01*
X189357000Y-131465000D01*
X189103000Y-131465000D01*
X189103000Y-131445000D01*
X189083000Y-131445000D01*
X189083000Y-131191000D01*
X189103000Y-131191000D01*
X189103000Y-131171000D01*
X189357000Y-131171000D01*
X189357000Y-131191000D01*
X190563817Y-131191000D01*
X190684958Y-130958974D01*
X190512688Y-130543053D01*
X190445365Y-130469296D01*
X190756000Y-130340944D01*
X190756000Y-133098000D01*
M02*
