G04 #@! TF.FileFunction,Soldermask,Top*
%FSLAX46Y46*%
G04 Gerber Fmt 4.6, Leading zero omitted, Abs format (unit mm)*
G04 Created by KiCad (PCBNEW 4.0.1-3.201512221402+6198~38~ubuntu14.04.1-stable) date Sun 07 Feb 2016 23:01:24 GMT*
%MOMM*%
G01*
G04 APERTURE LIST*
%ADD10C,0.100000*%
%ADD11R,2.127200X2.432000*%
%ADD12O,2.127200X2.432000*%
%ADD13R,2.200860X1.200100*%
%ADD14R,1.200100X2.200860*%
%ADD15R,1.700000X1.950000*%
%ADD16C,1.924000*%
%ADD17R,1.700000X1.900000*%
%ADD18R,1.900000X1.700000*%
%ADD19R,2.127200X2.127200*%
%ADD20O,2.127200X2.127200*%
G04 APERTURE END LIST*
D10*
D11*
X164465000Y-121920000D03*
D12*
X167005000Y-121920000D03*
X169545000Y-121920000D03*
D13*
X190096140Y-121600000D03*
X190096140Y-119700000D03*
X187093860Y-120650000D03*
X176253140Y-120838000D03*
X176253140Y-118938000D03*
X173250860Y-119888000D03*
D14*
X164526000Y-114830860D03*
X162626000Y-114830860D03*
X163576000Y-117833140D03*
D15*
X179360000Y-113500000D03*
X183860000Y-113500000D03*
X183860000Y-121450000D03*
X179360000Y-121450000D03*
D16*
X164465000Y-125095000D03*
X161925000Y-125095000D03*
X167005000Y-125095000D03*
X174625000Y-125095000D03*
X169545000Y-125095000D03*
X172085000Y-125095000D03*
X187325000Y-125095000D03*
X184785000Y-125095000D03*
X189865000Y-125095000D03*
X182245000Y-125095000D03*
X177165000Y-125095000D03*
X179705000Y-125095000D03*
X179705000Y-142875000D03*
X177165000Y-142875000D03*
X182245000Y-142875000D03*
X189865000Y-142875000D03*
X184785000Y-142875000D03*
X187325000Y-142875000D03*
X172085000Y-142875000D03*
X169545000Y-142875000D03*
X174625000Y-142875000D03*
X167005000Y-142875000D03*
X161925000Y-142875000D03*
X164465000Y-142875000D03*
D17*
X173355000Y-115650000D03*
X173355000Y-112950000D03*
X176276000Y-115650000D03*
X176276000Y-112950000D03*
X186944000Y-116920000D03*
X186944000Y-114220000D03*
X190246000Y-116920000D03*
X190246000Y-114220000D03*
D18*
X167560000Y-117602000D03*
X170260000Y-117602000D03*
X167560000Y-114554000D03*
X170260000Y-114554000D03*
D19*
X186690000Y-136398000D03*
D20*
X189230000Y-136398000D03*
X186690000Y-133858000D03*
X189230000Y-133858000D03*
X186690000Y-131318000D03*
X189230000Y-131318000D03*
M02*
