M48
;DRILL file {KiCad 4.0.1-3.201512221402+6198~38~ubuntu14.04.1-stable} date Sun 07 Feb 2016 23:01:29 GMT
;FORMAT={-:-/ absolute / metric / decimal}
FMAT,2
METRIC,TZ
T1C0.400
T2C0.762
T3C1.016
%
G90
G05
M71
T1
X161.798Y-139.954
X165.608Y-110.998
X165.608Y-113.792
X169.164Y-131.826
X169.164Y-132.842
X171.704Y-121.412
X171.958Y-128.016
X172.466Y-132.842
X172.466Y-134.874
X173.99Y-135.636
X174.498Y-141.478
X174.752Y-139.954
X175.514Y-136.398
X176.276Y-122.428
X176.53Y-136.398
X177.546Y-132.842
X177.8Y-136.398
X179.578Y-129.032
X180.848Y-141.224
X181.356Y-130.302
X182.88Y-138.176
X183.642Y-135.382
X183.896Y-111.76
X184.912Y-138.176
X185.674Y-119.38
X185.674Y-141.224
X189.484Y-140.716
X190.246Y-129.54
X190.754Y-131.572
T2
X161.925Y-125.095
X161.925Y-142.875
X164.465Y-125.095
X164.465Y-142.875
X167.005Y-125.095
X167.005Y-142.875
X169.545Y-125.095
X169.545Y-142.875
X172.085Y-125.095
X172.085Y-142.875
X174.625Y-125.095
X174.625Y-142.875
X177.165Y-125.095
X177.165Y-142.875
X179.705Y-125.095
X179.705Y-142.875
X182.245Y-125.095
X182.245Y-142.875
X184.785Y-125.095
X184.785Y-142.875
X187.325Y-125.095
X187.325Y-142.875
X189.865Y-125.095
X189.865Y-142.875
T3
X164.465Y-121.92
X167.005Y-121.92
X169.545Y-121.92
X186.69Y-131.318
X186.69Y-133.858
X186.69Y-136.398
X189.23Y-131.318
X189.23Y-133.858
X189.23Y-136.398
T0
M30
